<svg width="500" height="128" viewBox="0 0 500 128" fill="none" xmlns="http://www.w3.org/2000/svg">
<path d="M362.546 79.0738C355.893 73.9209 352.566 67.0079 352.547 58.4668L362.546 79.0738ZM362.546 79.0738C369.194 84.2235 378.156 86.7422 389.32 86.7422C400.557 86.7422 409.557 84.2243 416.206 79.0738C422.877 73.907 426.205 67.0066 426.205 58.4297C426.205 49.9253 422.876 43.0284 416.248 37.8266C409.633 32.6343 400.63 30.1172 389.32 30.1172C378.08 30.1172 369.116 32.6737 362.504 37.8638C355.896 43.0503 352.566 49.9223 352.547 58.3926M362.546 79.0738L352.547 58.3926M352.547 58.3926H353.547H352.547ZM177.725 85.0014L177.726 86H178.725H198.43H199.43V85V71.1191H219.174C226.306 71.1191 231.924 69.373 235.916 65.7373C239.909 62.0994 241.846 57.1342 241.846 50.9707C241.846 44.8072 239.909 39.842 235.916 36.2041C231.923 32.5672 226.266 30.8223 219.1 30.8223H178.65H177.649L177.65 31.8237L177.725 85.0014ZM282.052 85.3115L282.277 86H283.002H304.229H305.655L305.169 84.6591L285.872 31.4443L285.633 30.7852H284.932H254.428H253.727L253.488 31.4443L234.191 84.6591L233.705 86H235.131H256.357H257.082L257.308 85.3115L259.271 79.3203H280.088L282.052 85.3115ZM354.176 31.7852V30.7852H353.176H295.471H294.471V31.7852V46.2578V47.2578H295.471H313.471V85V86H314.471H334.176H335.176V85V47.2578H353.176H354.176V46.2578V31.7852ZM374.657 59.4668H374.66V58.4668C374.66 54.9179 375.919 52.1677 378.415 50.1095C380.923 48.0428 384.488 46.9609 389.283 46.9609C393.966 46.9609 397.547 48.0057 400.137 50.0165C402.683 51.9935 403.98 54.7654 403.98 58.4668C403.98 62.0138 402.724 64.724 400.232 66.7447C397.724 68.7781 394.118 69.8613 389.283 69.8613C384.68 69.8613 381.132 68.8193 378.499 66.8019C376.158 65.0079 374.878 62.5947 374.657 59.4668ZM450.4 85.0371V69.6348H452.487L469.304 85.7589L469.594 86.0371H469.996H494.229H496.943L494.877 84.276L477.301 69.2961C482.314 68.6025 486.387 66.7196 489.448 63.6228C492.785 60.2454 494.412 55.743 494.412 50.2285C494.412 44.3662 492.379 39.6275 488.318 36.079C484.258 32.5316 478.651 30.8223 471.666 30.8223H429.695H428.695V31.8223V85.0371V86.0371H429.695H449.4H450.4V85.0371ZM466.211 56.4648H450.4V47.0352H466.248C468.417 47.0352 469.851 47.4888 470.732 48.2262C471.579 48.9345 472.076 50.0419 472.076 51.75C472.076 53.4531 471.573 54.5609 470.717 55.2713C469.825 56.0113 468.38 56.4648 466.211 56.4648ZM199.355 56.4648V47.0352H214.312C216.038 47.0352 217.302 47.4729 218.185 48.2381C219.022 48.9637 219.51 50.0626 219.51 51.75C219.51 53.331 219.055 54.4544 218.257 55.2235C217.468 55.9843 216.199 56.4648 214.275 56.4648H199.355ZM269.697 47.4805L275.239 64.4062H264.117L269.627 47.4805H269.697Z" fill="black" stroke="white" stroke-width="2"/>
<path d="M183.113 15.8285L183.181 14.5323L181.91 14.7972L181.903 14.7986L181.805 14.8191L181.712 14.8588C181.343 15.0177 180.959 15.1812 180.561 15.3506C172.103 18.9512 157.391 25.2138 143.661 45.7456C140.588 50.3407 138 54.7565 135.89 58.8996L122.129 67.2875L120.792 68.1023L122.094 68.9726L129.934 74.2156C129.241 77.0585 128.915 79.6383 128.966 81.8766L128.978 82.3961L129.41 82.6849L140.46 90.0746L140.894 90.3647L141.38 90.1747C143.466 89.3595 145.708 88.0656 148.064 86.3344L155.846 91.5385L157.147 92.4086L157.39 90.8623L159.884 74.9684C162.906 71.4286 165.996 67.3374 169.074 62.735C182.116 43.233 182.675 27.6549 183.005 18.4562C183.039 17.5122 183.07 16.6354 183.113 15.8285ZM159.526 39.0719C165.098 31.3666 170.845 28.5149 174.658 26.8606C174.504 31.0001 174.151 37.4458 169.179 45.5276L159.526 39.0719Z" fill="#FF3366" stroke="white" stroke-width="2"/>
<path d="M128.916 83.2461L128.431 82.9218L127.91 83.1842L113.105 90.6417L113.624 92.5324L121.814 91.9705L107.056 110.258L108.398 111.712L125.591 99.9869L122.779 110.621L121.927 113.844L124.412 111.623L130.533 106.153L129.524 124.007L131.487 124.327L140.398 91.7463L140.588 91.0516L139.989 90.6512L128.916 83.2461Z" fill="#FF3366" stroke="white" stroke-width="2"/>
<path d="M24.1608 67.4446L25.9641 66.002H23.1133H3H1.92748L2.00245 67.0718C2.43665 73.2691 5.66155 78.1092 11.5452 81.5929C17.4072 85.0638 25.7046 86.7422 36.3613 86.7422C46.6223 86.7422 54.3867 85.2572 59.4527 82.1007C64.5448 78.9279 67.1602 74.4637 67.1602 68.7832C67.1602 63.7162 65.4714 59.6687 62.0565 56.776C58.6445 53.8858 52.9113 52.3135 45.104 51.865C45.1034 51.865 45.1028 51.865 45.1022 51.8649L32.4231 51.0864C32.4218 51.0863 32.4205 51.0862 32.4191 51.0861C30.8307 50.9753 29.592 50.8655 28.7295 50.7577C27.8654 50.6497 27.0165 50.5075 26.1761 50.2974C25.3821 50.0989 24.9659 49.8335 24.781 49.6301C24.6155 49.448 24.4844 49.1525 24.4844 48.6699C24.4844 48.022 24.8663 47.3234 26.3768 46.6521C27.8624 45.9919 30.0394 45.625 32.9844 45.625C36.2329 45.625 38.9193 46.0949 41.0713 46.9626C43.2501 47.8411 44.2847 48.8966 44.6047 49.9899L44.8152 50.709H45.5645H65.6777H66.7248L66.6767 49.663C66.3986 43.6249 63.1923 38.8575 57.3223 35.3432C51.4665 31.8374 43.5073 30.1543 33.5781 30.1543C24.1672 30.1543 16.5917 31.7266 10.9322 34.9222C5.20034 38.1585 2.25977 42.8503 2.25977 48.9297C2.25977 53.6241 3.97494 57.3779 7.46816 60.1082C10.9482 62.8282 16.9638 64.3978 25.3101 64.9567L25.3104 64.9568L38.6698 65.8474L38.6864 65.8485L38.703 65.8491C39.7939 65.8854 40.6399 65.9575 41.2893 66.06C41.9295 66.1611 42.5853 66.3321 43.3103 66.5496C43.9264 66.7345 44.2897 66.9824 44.4994 67.2339C44.6983 67.4726 44.8242 67.792 44.8242 68.2637C44.8242 68.6601 44.708 68.9793 44.4746 69.2634C44.2273 69.5644 43.809 69.8717 43.1411 70.1441C41.7876 70.6962 39.6432 71.0117 36.6211 71.0117C33.0598 71.0117 30.0995 70.5748 27.7137 69.7328C25.7589 69.0429 24.6709 68.2399 24.1608 67.4446ZM69.7246 85V86H70.7246H90.4297H91.4297V85V66.8516H111.621V85V86H112.621H132.289H133.289V85V31.7852V30.7852H132.289H112.621H111.621V31.7852V50.416H91.4297V31.7852V30.7852H90.4297H70.7246H69.7246V31.7852V85Z" fill="black" stroke="white" stroke-width="2"/>
</svg>
