<svg width="498" height="124" viewBox="0 0 498 124" fill="none" xmlns="http://www.w3.org/2000/svg">
<path d="M181.725 79H201.43V64.1191H222.174C229.15 64.1191 234.494 62.4121 238.242 58.998C241.99 55.584 243.846 50.9082 243.846 44.9707C243.846 39.0332 241.99 34.3574 238.242 30.9434C234.494 27.5293 229.113 25.8223 222.1 25.8223H181.65L181.725 79ZM201.355 51.4648V40.0352H217.312C219.205 40.0352 220.727 40.5176 221.84 41.4824C222.953 42.4473 223.51 43.8574 223.51 45.75C223.51 47.5312 222.99 48.9414 221.951 49.9434C220.912 50.9453 219.354 51.4648 217.275 51.4648H201.355Z" fill="black"/>
<path d="M286.002 79H307.229L287.932 25.7852H257.428L238.131 79H259.357L261.547 72.3203H283.812L286.002 79ZM265.74 59.4062L271.9 40.4805H273.422L279.619 59.4062H265.74Z" fill="black"/>
<path d="M356.176 25.7852H298.471V40.2578H317.471V79H337.176V40.2578H356.176V25.7852Z" fill="black"/>
<path d="M356.547 52.3926C356.547 60.668 359.738 67.3105 366.158 72.2832C372.578 77.2559 381.299 79.7422 392.32 79.7422C403.416 79.7422 412.174 77.2559 418.594 72.2832C425.014 67.3105 428.205 60.7051 428.205 52.4297C428.205 44.2285 425.014 37.623 418.631 32.6133C412.248 27.6035 403.49 25.1172 392.32 25.1172C381.225 25.1172 372.504 27.6406 366.121 32.6504C359.738 37.6602 356.547 44.2656 356.547 52.4668V52.3926ZM376.66 52.4668C376.66 48.6445 378.033 45.6016 380.779 43.3379C383.525 41.0742 387.348 39.9609 392.283 39.9609C397.107 39.9609 400.93 41.0371 403.75 43.2266C406.57 45.416 407.98 48.4961 407.98 52.4668C407.98 56.2891 406.607 59.2949 403.861 61.5215C401.115 63.748 397.256 64.8613 392.283 64.8613C387.533 64.8613 383.748 63.7852 380.891 61.5957C378.033 59.4062 376.623 56.3633 376.623 52.4668H376.66Z" fill="black"/>
<path d="M478.637 63.1914L478.934 62.4492C484.352 61.9297 488.619 60.0742 491.736 56.9199C494.854 53.7656 496.412 49.5352 496.412 44.2285C496.412 38.625 494.482 34.1719 490.66 30.832C486.838 27.4922 481.494 25.8223 474.666 25.8223H432.695V79.0371H452.4V62.6348H455.889L472.996 79.0371H497.229L478.637 63.1914ZM469.248 51.4648H452.4V40.0352H469.248C473.812 40.0352 476.076 41.9277 476.076 45.75C476.076 49.5723 473.775 51.4648 469.211 51.4648H469.248Z" fill="black"/>
<path fill-rule="evenodd" clip-rule="evenodd" d="M188.114 11.7761C187.659 20.4598 188.453 36.9303 174.243 58.1791C171.122 62.8461 167.992 66.9778 164.94 70.5333L162.402 86.7072L154.049 81.1212L154.081 81.0729C151.546 83.002 149.174 84.4001 147.016 85.2433L135.966 77.8537C135.912 75.4904 136.299 72.6838 137.141 69.5292L137.007 69.7302L128.65 64.1414L142.654 55.6056C144.767 51.4281 147.376 46.9602 150.492 42.3015C164.701 21.0537 179.926 15.2941 188.107 11.7775L188.114 11.7761ZM181.722 21.3176C181.505 25.3905 181.868 33.0506 175.477 42.9297L164.117 35.3329C170.802 25.6496 177.883 22.9684 181.722 21.3176V21.3176Z" fill="#FF3366"/>
<path fill-rule="evenodd" clip-rule="evenodd" d="M134.36 80.0773L145.433 87.4825L136.523 120.063L137.668 99.7981L129.746 106.877L133.244 93.6496L113.834 106.886L130.031 86.8161L119.555 87.5348L134.36 80.0773Z" fill="#FF3366"/>
<path d="M28.1133 61.002H8C8.4082 66.8281 11.4141 71.3926 17.0547 74.7324C22.6953 78.0723 30.7852 79.7422 41.3613 79.7422C51.5664 79.7422 59.0996 78.2578 63.9238 75.252C68.748 72.2461 71.1602 68.0898 71.1602 62.7832C71.1602 57.959 69.5645 54.2109 66.4102 51.5391C63.2559 48.8672 57.8008 47.3086 50.0449 46.8633L37.3535 46.084C35.7578 45.9727 34.4961 45.8613 33.6055 45.75C32.7148 45.6387 31.8242 45.4902 30.9336 45.2676C30.043 45.0449 29.4121 44.7109 29.041 44.3027C28.6699 43.8945 28.4844 43.3379 28.4844 42.6699C28.4844 41.4453 29.3008 40.4805 30.9707 39.7383C32.6406 38.9961 34.9785 38.625 37.9844 38.625C41.3242 38.625 44.1445 39.1074 46.4453 40.0352C48.7461 40.9629 50.1191 42.1875 50.5645 43.709H70.6777C70.418 38.0684 67.4492 33.5781 61.8086 30.2012C56.168 26.8242 48.4121 25.1543 38.5781 25.1543C29.2637 25.1543 21.8789 26.7129 16.4238 29.793C10.9688 32.873 8.25977 37.252 8.25977 42.9297C8.25977 47.3457 9.85547 50.7969 13.084 53.3203C16.3125 55.8438 22.0645 57.4023 30.377 57.959L43.7363 58.8496C44.8496 58.8867 45.7402 58.9609 46.4453 59.0723C47.1504 59.1836 47.8555 59.3691 48.5977 59.5918C49.3398 59.8145 49.8965 60.1484 50.2676 60.5938C50.6387 61.0391 50.8242 61.5957 50.8242 62.2637C50.8242 64.75 47.7441 66.0117 41.6211 66.0117C37.9844 66.0117 34.9043 65.5664 32.3809 64.6758C29.8574 63.7852 28.373 62.5977 27.9277 61.1504L28.1133 61.002Z" fill="black"/>
<path d="M75.7246 79H95.4297V59.8516H117.621V79H137.289V25.7852H117.621V45.416H95.4297V25.7852H75.7246V79Z" fill="black"/>
</svg>
